<svg width="1876.6000000000001" height="1048.3000000000002" xmlns="http://www.w3.org/2000/svg" xmlns:xlink="http://www.w3.org/1999/xlink"><line x1="313.25" y1="8.0" x2="100.5" y2="33.0" style="stroke:black; stroke-width:1px;" />
<line x1="100.5" y1="41.0" x2="63.5" y2="66.0" style="stroke:black; stroke-width:1px;" />
<line x1="63.5" y1="74.0" x2="14.0" y2="99.0" style="stroke:black; stroke-width:1px;" />
<line x1="14.0" y1="107.0" x2="14.0" y2="132.0" style="stroke:black; stroke-width:1px;" />
<line x1="63.5" y1="74.0" x2="63.5" y2="99.0" style="stroke:black; stroke-width:1px;" />
<line x1="63.5" y1="107.0" x2="63.5" y2="132.0" style="stroke:black; stroke-width:1px;" />
<line x1="63.5" y1="74.0" x2="113.0" y2="99.0" style="stroke:black; stroke-width:1px;" />
<line x1="113.0" y1="107.0" x2="104.5" y2="132.0" style="stroke:black; stroke-width:1px;" />
<line x1="113.0" y1="107.0" x2="121.5" y2="132.0" style="stroke:black; stroke-width:1px;" />
<line x1="100.5" y1="41.0" x2="137.5" y2="66.0" style="stroke:black; stroke-width:1px;" />
<line x1="137.5" y1="74.0" x2="137.5" y2="99.0" style="stroke:black; stroke-width:1px;" />
<line x1="313.25" y1="8.0" x2="201.375" y2="33.0" style="stroke:black; stroke-width:1px;" />
<line x1="313.25" y1="8.0" x2="302.25" y2="33.0" style="stroke:black; stroke-width:1px;" />
<line x1="302.25" y1="41.0" x2="259.0" y2="66.0" style="stroke:black; stroke-width:1px;" />
<line x1="259.0" y1="74.0" x2="197.0" y2="99.0" style="stroke:black; stroke-width:1px;" />
<line x1="197.0" y1="107.0" x2="147.5" y2="132.0" style="stroke:black; stroke-width:1px;" />
<line x1="147.5" y1="140.0" x2="147.5" y2="165.0" style="stroke:black; stroke-width:1px;" />
<line x1="197.0" y1="107.0" x2="197.0" y2="132.0" style="stroke:black; stroke-width:1px;" />
<line x1="197.0" y1="140.0" x2="197.0" y2="165.0" style="stroke:black; stroke-width:1px;" />
<line x1="197.0" y1="107.0" x2="246.5" y2="132.0" style="stroke:black; stroke-width:1px;" />
<line x1="246.5" y1="140.0" x2="246.5" y2="165.0" style="stroke:black; stroke-width:1px;" />
<line x1="259.0" y1="74.0" x2="271.5" y2="99.0" style="stroke:black; stroke-width:1px;" />
<line x1="271.5" y1="107.0" x2="271.5" y2="132.0" style="stroke:black; stroke-width:1px;" />
<line x1="259.0" y1="74.0" x2="321.0" y2="99.0" style="stroke:black; stroke-width:1px;" />
<line x1="321.0" y1="107.0" x2="321.0" y2="132.0" style="stroke:black; stroke-width:1px;" />
<line x1="302.25" y1="41.0" x2="345.5" y2="66.0" style="stroke:black; stroke-width:1px;" />
<line x1="345.5" y1="74.0" x2="345.5" y2="99.0" style="stroke:black; stroke-width:1px;" />
<line x1="313.25" y1="8.0" x2="395.625" y2="33.0" style="stroke:black; stroke-width:1px;" />
<line x1="313.25" y1="8.0" x2="489.0" y2="33.0" style="stroke:black; stroke-width:1px;" />
<line x1="489.0" y1="41.0" x2="419.5" y2="66.0" style="stroke:black; stroke-width:1px;" />
<line x1="419.5" y1="74.0" x2="370.0" y2="99.0" style="stroke:black; stroke-width:1px;" />
<line x1="370.0" y1="107.0" x2="370.0" y2="132.0" style="stroke:black; stroke-width:1px;" />
<line x1="419.5" y1="74.0" x2="419.5" y2="99.0" style="stroke:black; stroke-width:1px;" />
<line x1="419.5" y1="107.0" x2="419.5" y2="132.0" style="stroke:black; stroke-width:1px;" />
<line x1="419.5" y1="74.0" x2="469.0" y2="99.0" style="stroke:black; stroke-width:1px;" />
<line x1="469.0" y1="107.0" x2="469.0" y2="132.0" style="stroke:black; stroke-width:1px;" />
<line x1="489.0" y1="41.0" x2="498.0" y2="66.0" style="stroke:black; stroke-width:1px;" />
<line x1="498.0" y1="74.0" x2="498.0" y2="99.0" style="stroke:black; stroke-width:1px;" />
<line x1="489.0" y1="41.0" x2="558.5" y2="66.0" style="stroke:black; stroke-width:1px;" />
<line x1="558.5" y1="74.0" x2="558.5" y2="99.0" style="stroke:black; stroke-width:1px;" />
<line x1="313.25" y1="8.0" x2="526.0" y2="33.0" style="stroke:black; stroke-width:1px;" />
<rect x="405.5" y="66.0" width="28.0" height="16.0" style="fill:orange; stroke:rgb(0,0,0);" rx="1"/>
<text x="407" y="75" style="font-family:sans-serif;font-size:10px;">
expr
</text>
<rect x="245.0" y="66.0" width="28.0" height="16.0" style="fill:orange; stroke:rgb(0,0,0);" rx="1"/>
<text x="247" y="75" style="font-family:sans-serif;font-size:10px;">
expr
</text>
<rect x="243.0" y="99.0" width="57.0" height="16.0" style="fill:orange; stroke:rgb(0,0,0);" rx="1"/>
<text x="245" y="108" style="font-family:sans-serif;font-size:10px;">
binary_op
</text>
<rect x="356.0" y="99.0" width="28.0" height="16.0" style="fill:orange; stroke:rgb(0,0,0);" rx="1"/>
<text x="358" y="108" style="font-family:sans-serif;font-size:10px;">
expr
</text>
<rect x="555.0" y="99.0" width="7.0" height="16.0" style="fill:orange; stroke:rgb(0,0,0);" rx="1"/>
<text x="557" y="108" style="font-family:sans-serif;font-size:10px;">
;
</text>
<rect x="89.0" y="33.0" width="23.0" height="16.0" style="fill:orange; stroke:rgb(0,0,0);" rx="1"/>
<text x="91" y="42" style="font-family:sans-serif;font-size:10px;">
line
</text>
<rect x="99.0" y="99.0" width="28.0" height="16.0" style="fill:orange; stroke:rgb(0,0,0);" rx="1"/>
<text x="101" y="108" style="font-family:sans-serif;font-size:10px;">
expr
</text>
<rect x="241.5" y="165.0" width="10.0" height="16.0" style="fill:orange; stroke:rgb(0,0,0);" rx="1"/>
<text x="243" y="174" style="font-family:sans-serif;font-size:10px;">
6
</text>
<rect x="133.5" y="132.0" width="28.0" height="16.0" style="fill:orange; stroke:rgb(0,0,0);" rx="1"/>
<text x="135" y="141" style="font-family:sans-serif;font-size:10px;">
expr
</text>
<rect x="299.25" y="0.0" width="28.0" height="16.0" style="fill:orange; stroke:rgb(0,0,0);" rx="1"/>
<text x="301" y="9" style="font-family:sans-serif;font-size:10px;">
start
</text>
<rect x="306.0" y="66.0" width="79.0" height="16.0" style="fill:orange; stroke:rgb(0,0,0);" rx="1"/>
<text x="308" y="75" style="font-family:sans-serif;font-size:10px;">
line_separator
</text>
<rect x="342.0" y="99.0" width="7.0" height="16.0" style="fill:orange; stroke:rgb(0,0,0);" rx="1"/>
<text x="344" y="108" style="font-family:sans-serif;font-size:10px;">
;
</text>
<rect x="477.5" y="33.0" width="23.0" height="16.0" style="fill:orange; stroke:rgb(0,0,0);" rx="1"/>
<text x="479" y="42" style="font-family:sans-serif;font-size:10px;">
line
</text>
<rect x="0.0" y="99.0" width="28.0" height="16.0" style="fill:orange; stroke:rgb(0,0,0);" rx="1"/>
<text x="2" y="108" style="font-family:sans-serif;font-size:10px;">
expr
</text>
<rect x="414.5" y="132.0" width="10.0" height="16.0" style="fill:orange; stroke:rgb(0,0,0);" rx="1"/>
<text x="416" y="141" style="font-family:sans-serif;font-size:10px;">
*
</text>
<rect x="507.5" y="33.0" width="37.0" height="16.0" style="fill:orange; stroke:rgb(0,0,0);" rx="1"/>
<text x="509" y="42" style="font-family:sans-serif;font-size:10px;">
&lt;EOF&gt;
</text>
<rect x="134.0" y="99.0" width="7.0" height="16.0" style="fill:orange; stroke:rgb(0,0,0);" rx="1"/>
<text x="136" y="108" style="font-family:sans-serif;font-size:10px;">
;
</text>
<rect x="9.0" y="132.0" width="10.0" height="16.0" style="fill:orange; stroke:rgb(0,0,0);" rx="1"/>
<text x="11" y="141" style="font-family:sans-serif;font-size:10px;">
6
</text>
<rect x="196.375" y="33.0" width="10.0" height="16.0" style="fill:orange; stroke:rgb(0,0,0);" rx="1"/>
<text x="198" y="42" style="font-family:sans-serif;font-size:10px;">
~
</text>
<rect x="307.0" y="99.0" width="28.0" height="16.0" style="fill:orange; stroke:rgb(0,0,0);" rx="1"/>
<text x="309" y="108" style="font-family:sans-serif;font-size:10px;">
expr
</text>
<rect x="99.5" y="132.0" width="10.0" height="16.0" style="fill:orange; stroke:rgb(0,0,0);" rx="1"/>
<text x="101" y="141" style="font-family:sans-serif;font-size:10px;">
~
</text>
<rect x="455.0" y="99.0" width="28.0" height="16.0" style="fill:orange; stroke:rgb(0,0,0);" rx="1"/>
<text x="457" y="108" style="font-family:sans-serif;font-size:10px;">
expr
</text>
<rect x="519.0" y="66.0" width="79.0" height="16.0" style="fill:orange; stroke:rgb(0,0,0);" rx="1"/>
<text x="521" y="75" style="font-family:sans-serif;font-size:10px;">
line_separator
</text>
<rect x="484.0" y="66.0" width="28.0" height="16.0" style="fill:orange; stroke:rgb(0,0,0);" rx="1"/>
<text x="486" y="75" style="font-family:sans-serif;font-size:10px;">
expr
</text>
<rect x="267.5" y="132.0" width="8.0" height="16.0" style="fill:orange; stroke:rgb(0,0,0);" rx="1"/>
<text x="269" y="141" style="font-family:sans-serif;font-size:10px;">
/
</text>
<rect x="58.5" y="132.0" width="10.0" height="16.0" style="fill:orange; stroke:rgb(0,0,0);" rx="1"/>
<text x="60" y="141" style="font-family:sans-serif;font-size:10px;">
+
</text>
<rect x="391.0" y="99.0" width="57.0" height="16.0" style="fill:orange; stroke:rgb(0,0,0);" rx="1"/>
<text x="393" y="108" style="font-family:sans-serif;font-size:10px;">
binary_op
</text>
<rect x="232.5" y="132.0" width="28.0" height="16.0" style="fill:orange; stroke:rgb(0,0,0);" rx="1"/>
<text x="234" y="141" style="font-family:sans-serif;font-size:10px;">
expr
</text>
<rect x="365.0" y="132.0" width="10.0" height="16.0" style="fill:orange; stroke:rgb(0,0,0);" rx="1"/>
<text x="367" y="141" style="font-family:sans-serif;font-size:10px;">
6
</text>
<rect x="490.0" y="99.0" width="16.0" height="16.0" style="fill:orange; stroke:rgb(0,0,0);" rx="1"/>
<text x="492" y="108" style="font-family:sans-serif;font-size:10px;">
12
</text>
<rect x="168.5" y="132.0" width="57.0" height="16.0" style="fill:orange; stroke:rgb(0,0,0);" rx="1"/>
<text x="170" y="141" style="font-family:sans-serif;font-size:10px;">
binary_op
</text>
<rect x="290.75" y="33.0" width="23.0" height="16.0" style="fill:orange; stroke:rgb(0,0,0);" rx="1"/>
<text x="292" y="42" style="font-family:sans-serif;font-size:10px;">
line
</text>
<rect x="49.5" y="66.0" width="28.0" height="16.0" style="fill:orange; stroke:rgb(0,0,0);" rx="1"/>
<text x="51" y="75" style="font-family:sans-serif;font-size:10px;">
expr
</text>
<rect x="183.0" y="99.0" width="28.0" height="16.0" style="fill:orange; stroke:rgb(0,0,0);" rx="1"/>
<text x="185" y="108" style="font-family:sans-serif;font-size:10px;">
expr
</text>
<rect x="192.0" y="165.0" width="10.0" height="16.0" style="fill:orange; stroke:rgb(0,0,0);" rx="1"/>
<text x="194" y="174" style="font-family:sans-serif;font-size:10px;">
+
</text>
<rect x="116.5" y="132.0" width="10.0" height="16.0" style="fill:orange; stroke:rgb(0,0,0);" rx="1"/>
<text x="118" y="141" style="font-family:sans-serif;font-size:10px;">
3
</text>
<rect x="316.0" y="132.0" width="10.0" height="16.0" style="fill:orange; stroke:rgb(0,0,0);" rx="1"/>
<text x="318" y="141" style="font-family:sans-serif;font-size:10px;">
3
</text>
<rect x="391.625" y="33.0" width="8.0" height="16.0" style="fill:orange; stroke:rgb(0,0,0);" rx="1"/>
<text x="393" y="42" style="font-family:sans-serif;font-size:10px;">
-
</text>
<rect x="464.0" y="132.0" width="10.0" height="16.0" style="fill:orange; stroke:rgb(0,0,0);" rx="1"/>
<text x="466" y="141" style="font-family:sans-serif;font-size:10px;">
6
</text>
<rect x="142.5" y="165.0" width="10.0" height="16.0" style="fill:orange; stroke:rgb(0,0,0);" rx="1"/>
<text x="144" y="174" style="font-family:sans-serif;font-size:10px;">
3
</text>
<rect x="35.0" y="99.0" width="57.0" height="16.0" style="fill:orange; stroke:rgb(0,0,0);" rx="1"/>
<text x="37" y="108" style="font-family:sans-serif;font-size:10px;">
binary_op
</text>
<rect x="98.0" y="66.0" width="79.0" height="16.0" style="fill:orange; stroke:rgb(0,0,0);" rx="1"/>
<text x="100" y="75" style="font-family:sans-serif;font-size:10px;">
line_separator
</text>
</svg>